<svg xmlns="http://www.w3.org/2000/svg" viewBox="0 0 17 21.25" x="0px" y="0px"><title>film tape</title><g><path d="M16.5,16H12.492A8.494,8.494,0,1,0,8.5,17h8a.5.5,0,0,0,0-1ZM1,8.5A7.5,7.5,0,1,1,8.5,16,7.508,7.508,0,0,1,1,8.5Z"/><path d="M8.5,7A2.5,2.5,0,1,0,6,4.5,2.5,2.5,0,0,0,8.5,7Zm0-4A1.5,1.5,0,1,1,7,4.5,1.5,1.5,0,0,1,8.5,3Z"/><path d="M11,12.5A2.5,2.5,0,1,0,8.5,15,2.5,2.5,0,0,0,11,12.5Zm-4,0A1.5,1.5,0,1,1,8.5,14,1.5,1.5,0,0,1,7,12.5Z"/><path d="M10,8.5A2.5,2.5,0,1,0,12.5,6,2.5,2.5,0,0,0,10,8.5ZM12.5,7A1.5,1.5,0,1,1,11,8.5,1.5,1.5,0,0,1,12.5,7Z"/><path d="M7,8.5A2.5,2.5,0,1,0,4.5,11,2.5,2.5,0,0,0,7,8.5ZM4.5,10A1.5,1.5,0,1,1,6,8.5,1.5,1.5,0,0,1,4.5,10Z"/><circle cx="8.5" cy="8.5" r="0.5"/></g><text x="0" y="32" fill="#d22f27" font-size="5px" font-weight="bold" font-family="'Helvetica Neue', Helvetica, Arial-Unicode, Arial, Sans-serif">Created by syarip yunus</text><text x="0" y="37" fill="#d22f27" font-size="5px" font-weight="bold" font-family="'Helvetica Neue', Helvetica, Arial-Unicode, Arial, Sans-serif">from the Noun Project</text></svg>